<svg width="24" height="24" viewBox="0 0 24 24" fill="none" xmlns="http://www.w3.org/2000/svg">
<path d="M11.57 21H10.507C6.497 21 4.492 21 3.246 19.454C2 17.908 2 15.42 2 10.444V7.22C2 5.303 2 4.344 2.324 3.625C2.5351 3.13569 2.87522 2.71295 3.308 2.402C3.888 2 4.661 2 6.206 2C7.196 2 7.691 2 8.124 2.202C9.114 2.662 9.522 3.777 9.968 4.885L10.507 6.222M7.004 6.222H15.549C17.341 6.222 18.237 6.222 18.881 6.756C19.159 6.986 19.399 7.284 19.585 7.63C19.875 8.168 19.969 8.849 20 9.917" stroke="#2C3B44" stroke-width="1.5" stroke-linecap="round" stroke-linejoin="round"/>
<path d="M4.59597 12.5761C5.02597 11.4261 5.24297 10.8521 5.66297 10.4911C6.34297 9.90906 7.31997 10.0061 8.15697 10.0061H17.252C19.729 10.0061 20.968 10.0061 21.586 10.8031C22.646 12.1711 21.395 14.3901 20.891 15.7331C19.987 18.1411 19.535 19.3451 18.635 20.0791C17.264 21.1981 15.269 20.9831 13.614 20.9831H9.93697C6.39397 20.9831 4.62297 20.9831 3.70097 19.8871C2.00097 17.8621 3.83097 14.6131 4.59597 12.5751" stroke="#2C3B44" stroke-width="1.5" stroke-linecap="round" stroke-linejoin="round"/>
</svg>
