<svg width="118" height="101" viewBox="0 0 118 101" fill="none" xmlns="http://www.w3.org/2000/svg">
<path d="M59.003 100.101C79.2773 100.101 95.713 99.0762 95.713 97.8115C95.713 96.5468 79.2773 95.5215 59.003 95.5215C38.7286 95.5215 22.293 96.5468 22.293 97.8115C22.293 99.0762 38.7286 100.101 59.003 100.101Z" fill="#F2F2F2"/>
<path d="M79.4825 31.5721C71.1125 31.5721 62.5925 31.2321 54.6225 29.0121C46.8025 26.8421 39.6225 22.6321 33.2225 17.7621C29.0325 14.5921 25.2225 12.0721 19.7825 12.4521C14.456 12.7437 9.36485 14.7422 5.26246 18.1521C-1.65754 24.1521 -0.617543 35.3821 2.15246 43.2721C6.31246 55.1521 18.9725 63.3821 29.7325 68.7621C42.1625 74.9721 55.8225 78.5721 69.5125 80.6521C81.5125 82.4721 96.9324 83.8021 107.332 75.9621C116.882 68.7621 119.502 52.3221 117.162 41.2221C116.595 37.94 114.849 34.9778 112.252 32.8921C105.542 27.9921 95.5325 31.2621 87.9925 31.4321C85.1925 31.4921 82.3425 31.5621 79.4825 31.5721Z" fill="#F2F2F2"/>
<path d="M85.5541 1.27404L29.0192 21.6948C27.0713 22.3984 26.0626 24.5478 26.7661 26.4957L38.6938 59.5176C39.3974 61.4655 41.5469 62.4742 43.4948 61.7706L100.03 41.3498C101.978 40.6462 102.986 38.4968 102.283 36.5489L90.3551 3.52705C89.6515 1.57915 87.502 0.570448 85.5541 1.27404Z" fill="#D2D2D2"/>
<path d="M87.7105 23.2258L28.267 32.1521C26.2189 32.4597 24.8079 34.3693 25.1155 36.4174L30.3293 71.1381C30.6369 73.1862 32.5465 74.5972 34.5946 74.2897L94.0381 65.3633C96.0862 65.0558 97.4972 63.1462 97.1897 61.0981L91.9758 26.3773C91.6683 24.3292 89.7586 22.9182 87.7105 23.2258Z" fill="white" stroke="#BABABA" stroke-linecap="round" stroke-linejoin="round"/>
<path d="M50.4762 58.7297L35.8502 60.926C35.3914 60.9949 35.0754 61.4227 35.1443 61.8815L35.2096 62.3166C35.2785 62.7754 35.7063 63.0914 36.165 63.0225L50.7911 60.8262C51.2498 60.7573 51.5659 60.3296 51.497 59.8708L51.4317 59.4357C51.3628 58.9769 50.935 58.6608 50.4762 58.7297Z" fill="#D2D2D2"/>
<path d="M60.3614 61.5351L36.6967 65.0887C36.1178 65.1756 35.7189 65.7154 35.8058 66.2943C35.8928 66.8733 36.4326 67.2721 37.0115 67.1852L60.6762 63.6316C61.2551 63.5446 61.6539 63.0048 61.567 62.4259C61.4801 61.847 60.9403 61.4481 60.3614 61.5351Z" fill="#D2D2D2"/>
<path d="M84.181 28.7362L79.1771 29.4876C78.3415 29.6131 77.7658 30.3923 77.8913 31.2279L78.6427 36.2318C78.7682 37.0674 79.5473 37.6431 80.3829 37.5176L85.3868 36.7662C86.2224 36.6407 86.7981 35.8616 86.6726 35.026L85.9212 30.0221C85.7957 29.1864 85.0166 28.6107 84.181 28.7362Z" fill="#D2D2D2"/>
</svg>
