<svg width="33" height="33" viewBox="0 0 33 33" fill="none" xmlns="http://www.w3.org/2000/svg">
<rect x="2.6875" y="2.57422" width="28.125" height="28.125" rx="14.0625" fill="#F2F4F7"/>
<rect x="2.6875" y="2.57422" width="28.125" height="28.125" rx="14.0625" stroke="#F9FAFB" stroke-width="4.21875"/>
<g clip-path="url(#clip0_4359_6254)">
<path d="M14.4063 18.9805L16.75 16.6367M16.75 16.6367L19.0938 18.9805M16.75 16.6367V21.9102M21.4375 19.4157C22.1532 18.8246 22.6094 17.9304 22.6094 16.9297C22.6094 15.1499 21.1665 13.707 19.3867 13.707C19.2587 13.707 19.1389 13.6402 19.0739 13.5299C18.3098 12.2333 16.8991 11.3633 15.2852 11.3633C12.8581 11.3633 10.8906 13.3308 10.8906 15.7578C10.8906 16.9684 11.3801 18.0647 12.172 18.8595" stroke="#475467" stroke-width="1.17188" stroke-linecap="round" stroke-linejoin="round"/>
</g>
<defs>
<clipPath id="clip0_4359_6254">
<rect width="14.0625" height="14.0625" fill="white" transform="translate(9.71875 9.60547)"/>
</clipPath>
</defs>
</svg>
